<svg id="Layer_1" data-name="Layer 1" xmlns="http://www.w3.org/2000/svg" viewBox="0 0 430 500"><defs><style>.cls-1{fill:#9d3493;}.cls-2{fill:#4993cf;}.cls-3{fill:#0d9948;}.cls-4{fill:#f8981d;}.cls-5{fill:#ed2024;}.cls-6{fill:#f7ec13;}.cls-7{fill:#fff;}</style></defs><g id="Colour_B"><path class="cls-1" d="M416.07,304.1572a8.8523,8.8523,0,0,1-8.8525-8.852V213.8965c0-105.25-85.627-190.877-190.877-190.877S25.4639,108.6465,25.4639,213.8965a8.8526,8.8526,0,0,1-17.7051,0c0-115.0122,93.5693-208.5811,208.582-208.5811S424.9229,98.8843,424.9229,213.8965v81.4087A8.8524,8.8524,0,0,1,416.07,304.1572Z"/><path class="cls-2" d="M391.5049,265.3032a8.8524,8.8524,0,0,1-8.8526-8.852V213.8965c0-91.7046-74.6064-166.3115-166.3115-166.3115S50.0293,122.1919,50.0293,213.8965a8.8526,8.8526,0,0,1-17.7051,0c0-101.4668,82.55-184.0156,184.0166-184.0156S400.3574,112.43,400.3574,213.8965v42.5547A8.8523,8.8523,0,0,1,391.5049,265.3032Z"/><path class="cls-3" d="M366.94,295.0928a8.8524,8.8524,0,0,1-8.8526-8.8521V213.8965c0-78.1587-63.5869-141.7456-141.7461-141.7456S74.5947,135.7378,74.5947,213.8965a8.8526,8.8526,0,0,1-17.7051,0c0-87.9209,71.5293-159.45,159.4512-159.45s159.4512,71.5288,159.4512,159.45v72.3442A8.8524,8.8524,0,0,1,366.94,295.0928Z"/><path class="cls-4" d="M317.8076,320.4355a8.8523,8.8523,0,0,1-8.8525-8.852v-97.687a92.6143,92.6143,0,1,0-185.2285,0,8.8526,8.8526,0,0,1-17.7051,0,110.3194,110.3194,0,0,1,220.6387,0v97.687A8.8524,8.8524,0,0,1,317.8076,320.4355Z"/><path class="cls-5" d="M293.2422,298.7256a8.8524,8.8524,0,0,1-8.8526-8.8521V213.897a68.0488,68.0488,0,1,0-136.0976,0,8.8526,8.8526,0,0,1-17.7051,0,85.7539,85.7539,0,0,1,171.5078,0v75.9765A8.8524,8.8524,0,0,1,293.2422,298.7256Z"/><path class="cls-6" d="M342.373,272.57a8.8522,8.8522,0,0,1-8.8515-8.82l-.1758-48.5464a117.18,117.18,0,1,0-234.36-.0322,8.8526,8.8526,0,0,1-17.7051,0c0-74.3755,60.5088-134.8843,134.8847-134.8843s134.8858,60.5088,134.8858,134.8843l.1758,48.5141a8.8526,8.8526,0,0,1-8.82,8.8843Z"/><path class="cls-7" d="M16.8623,235.72H35.94q12.6825,0,19.6015,7.0313,6.9185,7.0333,6.918,19.9023,0,12.7538-6.918,19.7832Q48.6226,289.47,35.94,289.4683h-8.49V306.51q0,4.8881-2.0957,7.1508-2.0991,2.2647-6.8135,2.2642H16.8623q-4.8222,0-6.8652-2.2046t-2.044-7.21V245.373q0-5.0053,2.0967-7.3295Q12.1446,235.7194,16.8623,235.72Zm10.5869,36.5869h7.4424a9.0027,9.0027,0,0,0,6.3418-2.2641,8.4626,8.4626,0,0,0,2.4629-6.5547q0-4.4077-2.4629-6.6143a9.155,9.155,0,0,0-6.3418-2.205H27.4492Z"/><path class="cls-7" d="M117.1738,279.4575v14.54a27.4415,27.4415,0,0,0,1.2051,9.0571q1.2041,3.3376,3.0918,4.1714a12.0375,12.0375,0,0,1-1.7295,4.7075,8.3972,8.3972,0,0,1-3.8252,3.3965,11.79,11.79,0,0,1-4.8222,1.0723q-7.5469,0-9.8526-8.938l-.21-.1192a12.93,12.93,0,0,1-4.35,5.72,14.284,14.284,0,0,1-5.87,2.92,24.511,24.511,0,0,1-4.35.5361,17.9692,17.9692,0,0,1-9.749-2.562,17.1608,17.1608,0,0,1-6.2363-6.6738,20.6958,20.6958,0,0,1-2.1485-9.7129,19.42,19.42,0,0,1,2.5157-10.0108,18.5873,18.5873,0,0,1,7.2841-6.9126,22.8268,22.8268,0,0,1,11.1641-2.6216q.731,0,2.5674.1192,1.8326.12,2.6211.2383.7851.12,6.2363,1.43v-1.43a7.6228,7.6228,0,0,0-.9961-3.6348,6.58,6.58,0,0,0-3.668-2.86,17.5865,17.5865,0,0,0-6.2373-1.0131q-8.1753,0-13.417,4.29-4.9276-2.3826-4.9257-9.0576,0-5.6,5.8173-9.355T92.96,253q8.1767,0,13.417,2.86a18.8488,18.8488,0,0,1,8.0185,8.5805Q117.1714,270.1619,117.1738,279.4575Zm-32.18,16.208a5.4078,5.4078,0,0,0,2.044,4.4092,7.7648,7.7648,0,0,0,5.084,1.6685,8.6568,8.6568,0,0,0,3.8252-1.0127,8.0655,8.0655,0,0,0,3.4072-3.4561,10.4907,10.4907,0,0,0,1.3623-5.1846v-1.0722a15.7224,15.7224,0,0,0-7.8613-1.7876A9.2221,9.2221,0,0,0,87.3,290.8984,5.5293,5.5293,0,0,0,84.9941,295.6655Z"/><path class="cls-7" d="M145.0547,264.918q3.04-7.1507,6.08-9.4151a10.543,10.543,0,0,1,6.3935-2.2641,10.43,10.43,0,0,1,5.2412,1.31,7.22,7.22,0,0,1,3.2491,3.6948,13.172,13.172,0,0,1,.9433,4.8863,20.6592,20.6592,0,0,1-2.9346,11.4409,18.3812,18.3812,0,0,0-7.9658-1.7876q-10.6918,0-10.6924,17.9956v13.2285q0,5.96-1.9384,8.938-1.941,2.98-6.8662,2.9795h-.5235q-5.2427,0-7.0234-2.3833-1.7827-2.3833-1.7822-8.3428V264.68q0-5.721,1.9921-8.3428,1.9893-2.62,6.8135-2.6216,4.7167,0,6.8652,2.7412T145.0547,264.918Z"/><path class="cls-7" d="M187.4023,241.44h1.1524q8.49,0,8.49,9.7725v5.84h6.6045q4.2964,0,6.4981,2.3238a8.5581,8.5581,0,0,1,2.2011,6.1377q0,4.8882-2.3056,6.6738-2.3072,1.7878-7.5469,1.7876h-5.4512v16.208q0,5.0053,1.6778,6.8525a6.3107,6.3107,0,0,0,4.9267,1.8477,20.3921,20.3921,0,0,0,2.83-.4175,11.96,11.96,0,0,0,3.9824-1.49q1.8867,2.8608,1.8867,8.4619a10.6165,10.6165,0,0,1-1.415,5.1841q-1.4151,2.5641-5.3457,4.1709a23.7905,23.7905,0,0,1-9.0664,1.6089q-8.2823,0-12.8926-5.5415-4.6143-5.5416-4.6123-16.625v-20.26H176.291a6.6563,6.6563,0,0,1-3.7207-1.1318,6.165,6.165,0,0,1-2.4639-3.1582,12.1565,12.1565,0,0,1-.7334-4.1714q0-8.46,7.6524-8.4615h1.9912v-4.6479q0-5.3628,1.9395-8.1636Q182.894,241.4422,187.4023,241.44Z"/><path class="cls-7" d="M223.8779,253.7153h3.459q6.7075,0,8.1768,6.6739l.3144,1.43q.2081.835,2.9873,14.0625,2.7759,13.2291,5.3975,22.2862a383.1044,383.1044,0,0,0,8.49-37.7788q1.1529-6.6732,8.1768-6.6739h3.3535a9.5444,9.5444,0,0,1,5.3984,1.43,4.8107,4.8107,0,0,1,2.1485,4.29,11.413,11.413,0,0,1-.419,2.503,15.8111,15.8111,0,0,0-.4189,1.9067,398.8963,398.8963,0,0,1-19.916,66.1431q-2.3071,5.72-4.56,7.8056a6.96,6.96,0,0,1-4.7695,2.086H236.876a6.1481,6.1481,0,0,1-6.6035-6.5547,13.6971,13.6971,0,0,1,.9433-4.231,75.5005,75.5005,0,0,1,3.459-7.7465q2.5152-5.067,3.04-6.376h-.1054q-4.6128-1.43-8.0713-8.8189-2.3056-4.8852-5.24-13.2285-2.9356-8.3407-7.5469-30.6284a14.6121,14.6121,0,0,1-.42-2.86,4.7794,4.7794,0,0,1,2.1494-4.35A9.8607,9.8607,0,0,1,223.8779,253.7153Z"/><path class="cls-7" d="M22.1025,324.8994H51.7363q19.6992,0,30.4473,11.17Q92.93,347.243,92.93,367.687q0,20.2609-10.7461,31.4282-10.7462,11.1732-30.4473,11.17H38.5479v27.0738q0,7.765-3.2569,11.3594-3.2578,3.5984-10.583,3.5971H22.1025q-7.49,0-10.664-3.5024T8.2637,437.3594V340.2349q0-7.9519,3.2558-11.6436T22.1025,324.8994Zm16.4454,58.1231H50.1084a13.8007,13.8007,0,0,0,9.8506-3.5972q3.8232-3.594,3.8262-10.4131,0-7.002-3.8262-10.5073a14.03,14.03,0,0,0-9.8506-3.5025H38.5479Z"/><path class="cls-7" d="M128.26,371.2842q4.7211-11.3592,9.4443-14.9566a16.1513,16.1513,0,0,1,9.9316-3.5971,15.9123,15.9123,0,0,1,8.1407,2.0825,11.3862,11.3862,0,0,1,5.0478,5.8691,21.351,21.351,0,0,1,1.4658,7.7622q0,10.9827-4.5595,18.1753a28.0331,28.0331,0,0,0-12.3741-2.84q-16.6083,0-16.6074,28.5884v21.0151q0,9.4695-3.0127,14.2-3.0145,4.7344-10.665,4.7329h-.8135q-8.1445,0-10.9092-3.7866-2.77-3.7851-2.7675-13.2529V370.9058q0-9.0879,3.0927-13.253,3.0924-4.1624,10.584-4.165,7.3272,0,10.6641,4.3545Q128.2573,362.1995,128.26,371.2842Z"/><path class="cls-7" d="M248.91,403.28a70.0748,70.0748,0,0,1-2.5245,18.6489,43.648,43.648,0,0,1-8.2226,16.1875,42.4439,42.4439,0,0,1-13.9209,11.17,39.225,39.225,0,0,1-17.9912,4.1651,41.8471,41.8471,0,0,1-15.2237-2.9346,40.6,40.6,0,0,1-13.84-9.0874,43.9516,43.9516,0,0,1-10.0137-15.9033,61.6909,61.6909,0,0,1-3.7451-22.2461,71.0316,71.0316,0,0,1,2.5244-18.7432,45.3959,45.3959,0,0,1,8.2217-16.4712,43.3116,43.3116,0,0,1,14.0029-11.5488,38.334,38.334,0,0,1,18.0733-4.3545,37.8531,37.8531,0,0,1,17.9912,4.3545,43.62,43.62,0,0,1,13.9209,11.5488,45.4594,45.4594,0,0,1,8.2226,16.4712A71.1478,71.1478,0,0,1,248.91,403.28Zm-57.4756-.5679q0,11.173,4.07,16.7554a12.8972,12.8972,0,0,0,21.248,0q3.9873-5.5818,3.9893-16.7554,0-10.9776-4.0713-16.5659a12.8193,12.8193,0,0,0-21.166,0Q191.4326,391.7334,191.4346,402.7124Z"/><path class="cls-7" d="M267.7949,353.4878h1.3018a13.6887,13.6887,0,0,1,7.0019,1.7983q3.0909,1.8018,4.64,6.4375a38.0632,38.0632,0,0,1,1.5469,11.8326v31.05q0,9.0872,2.6054,14.3886,2.6031,5.3028,8.1406,5.3013,6.6753,0,9.3624-7.0054,2.6865-7.0019,2.6865-19.69V373.5562q0-9.8417,2.9306-14.9566,2.9312-5.1116,10.9092-5.1118h.6514q8.14,0,10.9092,3.9756,2.767,3.9764,2.7675,13.6318V434.519q0,9.8468-2.8486,13.8208-2.8506,3.9763-10.9912,3.9761-7.9789,0-11.1523-3.8813-3.1758-3.8782-3.1758-12.59v-2.0825a27.8414,27.8414,0,0,1-9.1992,13.915q-6.7588,5.587-17.6661,5.5855a20.67,20.67,0,0,1-9.28-2.1773,22.441,22.441,0,0,1-7.8155-6.6264,32.2531,32.2531,0,0,1-5.292-11.6436,65.5818,65.5818,0,0,1-1.872-16.4716V371.0952q0-9.2739,3.0937-13.4424Q260.14,353.49,267.7949,353.4878Z"/><path class="cls-7" d="M410.9111,316.001h.6514q7.1631,0,10.4209,3.7866,3.2548,3.79,3.2559,11.36V437.5483q0,7.952-3.1748,11.36t-10.502,3.4077h-.9766q-6.514,0-9.9326-3.124a10.19,10.19,0,0,1-3.4189-7.8569v-3.4078a27.7244,27.7244,0,0,1-5.6992,8.1412,21.8565,21.8565,0,0,1-8.3038,5.3955,25.61,25.61,0,0,1-8.4668,1.6093q-11.2338,0-18.7236-5.9638t-11.4795-16.9448q-3.9917-10.9776-3.9883-27.2627a102.7342,102.7342,0,0,1,1.709-18.8379,49.1275,49.1275,0,0,1,5.8614-16.1875,31.8749,31.8749,0,0,1,10.747-11.0757,29.6473,29.6473,0,0,1,15.874-4.07,26.2839,26.2839,0,0,1,13.2706,3.5971,22.7708,22.7708,0,0,1,9.0361,8.709V331.1475q0-7.9519,3.2568-11.5494Q403.583,316.0041,410.9111,316.001Zm-41.1933,87.09q0,10.4144,3.501,15.9981a11.4283,11.4283,0,0,0,10.3388,5.5849,10.7925,10.7925,0,0,0,6.0244-2.0825q3.0909-2.0815,5.1289-7.4785a35.6158,35.6158,0,0,0,2.0352-12.59v-3.0288a32.8907,32.8907,0,0,0-1.3027-9.0879,13.4349,13.4349,0,0,0-4.5586-7.1,11.3457,11.3457,0,0,0-7.1641-2.5561,14.4,14.4,0,0,0-6.0244,1.5146q-3.2594,1.5177-5.6182,6.5318Q369.7168,393.8155,369.7178,403.0913Z"/><path class="cls-7" d="M242.2227,487.4849a5.2287,5.2287,0,0,1-.9317,3.081,4.4158,4.4158,0,0,1-2.1758,1.7022,7.0667,7.0667,0,0,1-2.3017.416,5.5023,5.5023,0,0,1-2.8906-.82,4.4894,4.4894,0,0,1-1.84-2.041,5.684,5.684,0,0,1,.0459-4.8672,4.4893,4.4893,0,0,1,1.8779-2.0054,5.8414,5.8414,0,0,1,6.7217.6645A4.9566,4.9566,0,0,1,242.2227,487.4849Z"/><path class="cls-7" d="M271.1514,470.4761a3.6742,3.6742,0,0,1-1.4219,2.9121,5.3661,5.3661,0,0,1-3.5938,1.1421,4.9521,4.9521,0,0,0-1.8164-1.6309,6.035,6.035,0,0,0-2.8652-.6553,5.5662,5.5662,0,0,0-4.2529,1.6,6.4027,6.4027,0,0,0-1.6026,4.5791,8.6765,8.6765,0,0,0,.4922,2.9033,4.69,4.69,0,0,0,1.919,2.4248,5.952,5.952,0,0,0,3.3261.9614q3.6095.0337,5.3243-2.0278a4.996,4.996,0,0,1,3.2968,1.2885,3.7083,3.7083,0,0,1,1.3135,2.8565q-.0264,2.68-2.9414,4.4844a13.4844,13.4844,0,0,1-7.3457,1.7627,17.9326,17.9326,0,0,1-5.4873-.8995,13.873,13.873,0,0,1-4.7607-2.6977,12.4865,12.4865,0,0,1-3.3194-4.6528,16.0752,16.0752,0,0,1-1.1689-6.4922,16.9248,16.9248,0,0,1,1.2656-6.5782,12.9528,12.9528,0,0,1,3.3252-4.6992,13.6379,13.6379,0,0,1,4.7305-2.7173,16.5356,16.5356,0,0,1,5.4218-.851,15.0919,15.0919,0,0,1,5.542,1.0092,7.369,7.369,0,0,1,3.5293,2.6587A5.9128,5.9128,0,0,1,271.1514,470.4761Z"/><path class="cls-7" d="M302.4648,478.8115a17.6189,17.6189,0,0,1-.8984,5.3789A12.0717,12.0717,0,0,1,298.76,488.84a14.0887,14.0887,0,0,1-4.7061,3.1827A14.9682,14.9682,0,0,1,288,493.1685a16.1076,16.1076,0,0,1-5.1055-.896,14.0407,14.0407,0,0,1-4.624-2.669,12.6276,12.6276,0,0,1-3.3193-4.626,15.5992,15.5992,0,0,1-1.1973-6.4375,17.84,17.84,0,0,1,.8994-5.4062,12.495,12.495,0,0,1,2.8067-4.731,14.294,14.294,0,0,1,4.7343-3.2915,14.59,14.59,0,0,1,6.0821-1.2,14.4779,14.4779,0,0,1,10.6748,4.6949,12.5334,12.5334,0,0,1,2.7168,4.7836A17.89,17.89,0,0,1,302.4648,478.8115Zm-19.3027-.3467a7.3294,7.3294,0,0,0,1.3213,4.8536,4.7539,4.7539,0,0,0,7.1367.0673,7.4422,7.4422,0,0,0,1.3858-4.8276,7.249,7.249,0,0,0-1.3223-4.7983,4.7245,4.7245,0,0,0-7.1094-.0669A7.2352,7.2352,0,0,0,283.1621,478.4648Z"/><path class="cls-7" d="M315.4551,469.9653a9.2825,9.2825,0,0,1,2.0517-2.9887,8.5516,8.5516,0,0,1,3.0547-2.0767,8.1519,8.1519,0,0,1,2.9317-.6011q5.5781.0528,7.2734,5.8662a10.3881,10.3881,0,0,1,2.22-3.3974,7.0558,7.0558,0,0,1,2.9981-1.8584,10.2594,10.2594,0,0,1,2.9853-.4639,9.1274,9.1274,0,0,1,4.9639,1.3594,8.5713,8.5713,0,0,1,3.1641,3.7217,13.7584,13.7584,0,0,1,1.0654,5.8891l-.1231,12.961a6.1173,6.1173,0,0,1-.9931,3.8735q-.9682,1.14-3.5928,1.1147l-.4922-.0048a4.3183,4.3183,0,0,1-3.4072-1.1534,6.0958,6.0958,0,0,1-.92-3.9189l.1035-10.9922a5.12,5.12,0,0,0-.711-2.8784,2.53,2.53,0,0,0-2.2587-1.1421,3.2712,3.2712,0,0,0-1.9473.583,3.4472,3.4472,0,0,0-1.249,1.957,12.5106,12.5106,0,0,0-.4141,3.3326l-.0869,9.1328a5.765,5.765,0,0,1-1.0479,3.8183,4.5283,4.5283,0,0,1-3.538,1.1153l-.5469-.0054a4.498,4.498,0,0,1-3.4893-1.1543,5.9791,5.9791,0,0,1-.9472-3.9194l.1044-10.9922a4.58,4.58,0,0,0-.82-2.9336,3.1189,3.1189,0,0,0-2.5879-1.0908,3.2321,3.2321,0,0,0-2.5234.8784,4.1558,4.1558,0,0,0-1.0342,2.2871,19.9425,19.9425,0,0,0-.2168,2.7051l-.08,8.4765a8.6118,8.6118,0,0,1-.5772,3.2764,3.373,3.373,0,0,1-1.6309,1.8169,5.4851,5.4851,0,0,1-2.4384.4961l-.4922-.0044q-2.6807-.0256-3.5449-1.1548a6.6569,6.6569,0,0,1-.837-3.9731l.18-19.0308a4.6491,4.6491,0,0,1,1.0713-3.4082,4.8365,4.8365,0,0,1,3.4551-.979q2.8433.0272,3.9,1.1582Q315.4843,466.7935,315.4551,469.9653Z"/><path class="cls-7" d="M363.3516,488.6309a5.2428,5.2428,0,0,1-.9317,3.081,4.4206,4.4206,0,0,1-2.1767,1.7022,7.0662,7.0662,0,0,1-2.3008.416,5.5,5.5,0,0,1-2.8906-.82,4.4918,4.4918,0,0,1-1.8409-2.041,5.6934,5.6934,0,0,1,.0459-4.8672,4.4917,4.4917,0,0,1,1.8789-2.0054,5.84,5.84,0,0,1,6.7207.6645A4.9538,4.9538,0,0,1,363.3516,488.6309Z"/><path class="cls-7" d="M392.8848,477.0967l-.0635,6.6723a11.18,11.18,0,0,0,.59,4.1617,3.1705,3.1705,0,0,0,1.5948,1.9292,5.1294,5.1294,0,0,1-.9229,2.1518,4.2541,4.2541,0,0,1-2.0107,1.54,6.8684,6.8684,0,0,1-2.52.4682q-3.9375-.0374-5.1016-4.15l-.1084-.0561a6.0784,6.0784,0,0,1-2.2949,2.6035,7.8932,7.8932,0,0,1-3.0752,1.311,14.4294,14.4294,0,0,1-2.2715.2246,10.3827,10.3827,0,0,1-5.0752-1.2236,8.391,8.391,0,0,1-3.2246-3.0933,8.5629,8.5629,0,0,1-1.0791-4.4677,8.0867,8.0867,0,0,1,1.3564-4.5816,9.2871,9.2871,0,0,1,3.83-3.1357,13.2549,13.2549,0,0,1,5.836-1.148c.2548.0025.7021.0254,1.3388.0674s1.0938.084,1.3662.1221,1.3565.2685,3.2481.687l.0058-.6563A3.1771,3.1771,0,0,0,383.8,474.85a3.3923,3.3923,0,0,0-1.9023-1.33,10.3107,10.3107,0,0,0-3.2491-.4956,11.6943,11.6943,0,0,0-7.0185,1.9019,4.1039,4.1039,0,0,1-2.5313-4.18q.0249-2.57,3.0762-4.2642a16.5657,16.5657,0,0,1,8.1914-1.6455,16.2048,16.2048,0,0,1,6.9883,1.3789,9.221,9.221,0,0,1,4.1455,3.9771A14.24,14.24,0,0,1,392.8848,477.0967Zm-16.8594,7.2788a2.3737,2.3737,0,0,0,1.0469,2.0332,4.4259,4.4259,0,0,0,2.6455.7905,5.0119,5.0119,0,0,0,2-.4458,3.9874,3.9874,0,0,0,1.792-1.5688,4.3616,4.3616,0,0,0,.7334-2.3726l.0048-.4922a9.133,9.133,0,0,0-4.0937-.8589,5.2894,5.2894,0,0,0-2.9053.7383A2.4465,2.4465,0,0,0,376.0254,484.3755Z"/><path class="cls-7" d="M402.6758,465.376l.4375.0044a5.1913,5.1913,0,0,1,2.3467.5415,3.29,3.29,0,0,1,1.541,1.874,9.5763,9.5763,0,0,1,.4873,3.4229l-.085,8.9687a8.4011,8.4011,0,0,0,.835,4.1646,2.9285,2.9285,0,0,0,2.72,1.5566,3.1848,3.1848,0,0,0,3.1641-1.9937,14.3509,14.3509,0,0,0,.956-5.6787l.0655-6.9448a7.803,7.803,0,0,1,1.0253-4.311q.9991-1.4671,3.6788-1.4419l.2187.0019q2.7335.0256,3.6533,1.1831a6.37,6.37,0,0,1,.8926,3.9463l-.1738,18.32a6.35,6.35,0,0,1-.9942,3.9834q-.97,1.1389-3.7021,1.1133-2.6807-.0257-3.7363-1.1567a5.1543,5.1543,0,0,1-1.0323-3.6465l.0049-.6016a8.0714,8.0714,0,0,1-3.1269,3.99,10.0212,10.0212,0,0,1-5.9483,1.5571,7.8776,7.8776,0,0,1-3.1113-.6582,7.3661,7.3661,0,0,1-2.6065-1.939,8.7864,8.7864,0,0,1-1.746-3.38,16.4431,16.4431,0,0,1-.584-4.7637l.124-13.07a5.8907,5.8907,0,0,1,1.0752-3.8731A4.5779,4.5779,0,0,1,402.6758,465.376Z"/></g></svg>