<svg id="Layer_1" data-name="Layer 1" xmlns="http://www.w3.org/2000/svg" viewBox="0 0 430 500"><defs><style>.cls-1,.cls-2,.cls-3,.cls-4,.cls-5,.cls-6{fill:none;stroke-linecap:round;stroke-miterlimit:10;stroke-width:17.7044px;}.cls-1{stroke:#9d3493;}.cls-2{stroke:#4993cf;}.cls-3{stroke:#0d9948;}.cls-4{stroke:#f8981d;}.cls-5{stroke:#ed2024;}.cls-6{stroke:#f7ec13;}.cls-7{font-size:119.1763px;}.cls-7,.cls-8,.cls-9{font-family:MergeW00-Bold;font-weight:700;}.cls-8{font-size:189.3261px;letter-spacing:-0.028em;}.cls-9{font-size:54.6888px;}</style></defs><g id="Original"><path class="cls-1" d="M16.6107,213.8965c0-110.1311,89.5983-199.7294,199.73-199.7294s199.73,89.5983,199.73,199.7294V295.305"/><path class="cls-2" d="M41.1764,213.8965c0-96.5856,78.5786-175.1637,175.1642-175.1637s175.1642,78.5781,175.1642,175.1637v42.5546"/><path class="cls-3" d="M65.7421,213.8965c0-83.04,67.5583-150.598,150.5985-150.598S366.939,130.8563,366.939,213.8965V286.24"/><text/><path class="cls-4" d="M114.8736,213.8965a101.467,101.467,0,0,1,202.934,0v97.6866"/><path class="cls-5" d="M139.439,213.8968a76.9014,76.9014,0,0,1,153.8027,0v75.9764"/><path class="cls-6" d="M90.1324,215.1714a126.0328,126.0328,0,0,1,252.0655,0l.1754,48.5463"/><text class="cls-7" transform="translate(1.1394 315.9252) scale(0.8795 1)">Party</text><text class="cls-8" transform="translate(-2.3205 452.3158) scale(0.86 1)">Proud</text><text class="cls-9" transform="translate(228.7776 492.2796) rotate(0.542)">.com.au</text></g></svg>