<svg id="Layer_1" data-name="Layer 1" xmlns="http://www.w3.org/2000/svg" viewBox="0 0 421.5107 491.0428"><defs><style>.cls-1{fill:#fff;}.cls-2{fill:#7f3f98;}.cls-3{fill:#21409a;}.cls-4{fill:#00a14b;}.cls-5{fill:#f26522;}.cls-6{fill:#ed1c24;}.cls-7{fill:#ffde17;}</style></defs><path class="cls-1" d="M141.7773,470.3016l.22.0019a3.494,3.494,0,0,1,2.2124.6446,1.8967,1.8967,0,0,1,.7744,1.5478l-.0054.55a4.6765,4.6765,0,0,1,1.28-1.5469,5.399,5.399,0,0,1,1.8979-1.0087,6.48,6.48,0,0,1,1.874-.294,7.2853,7.2853,0,0,1,4.2618,1.2324,7.3709,7.3709,0,0,1,2.5547,3.3438,13.9894,13.9894,0,0,1,.8295,5.3271,13.2274,13.2274,0,0,1-.9477,5.1992,7.2383,7.2383,0,0,1-2.6533,3.2217,7.4811,7.4811,0,0,1-4.2661,1.1143,7.0014,7.0014,0,0,1-2.8912-.67,5.0346,5.0346,0,0,1-2.0756-1.5782l-.06,6.3457A3.0734,3.0734,0,0,1,144.0464,496a3.318,3.318,0,0,1-2.3721.6738l-.1465-.0009a3.2159,3.2159,0,0,1-2.3408-.7559,3.0442,3.0442,0,0,1-.7124-2.2441l.1939-20.503a2.95,2.95,0,0,1,.7363-2.2119A3.3735,3.3735,0,0,1,141.7773,470.3016Zm3.2066,10.0078a9.8006,9.8006,0,0,0,.1977,2.33,1.8039,1.8039,0,0,0,.9239,1.2373,3.7863,3.7863,0,0,0,1.7383.3838,3.0934,3.0934,0,0,0,1.728-.461,2.9687,2.9687,0,0,0,1.1323-1.3838,6.3318,6.3318,0,0,0,.4077-2.415,7.4955,7.4955,0,0,0-.29-2.2227,2.69,2.69,0,0,0-1.0859-1.5322,3.1329,3.1329,0,0,0-1.7374-.53,2.3713,2.3713,0,0,0-1.7485.6993,3.6822,3.6822,0,0,0-.9892,1.8056A9.2033,9.2033,0,0,0,144.9839,480.3094Z" transform="translate(-43.1006 -6.5247)"/><path class="cls-1" d="M176.7651,478.5555l-.0424,4.4736a7.51,7.51,0,0,0,.3955,2.792,2.1266,2.1266,0,0,0,1.07,1.294,3.438,3.438,0,0,1-.6192,1.4433,2.8419,2.8419,0,0,1-1.3486,1.0322,4.5854,4.5854,0,0,1-1.69.3145,3.3619,3.3619,0,0,1-3.4219-2.7842l-.0728-.0361a4.0835,4.0835,0,0,1-1.539,1.7461,5.315,5.315,0,0,1-2.062.8789,9.6943,9.6943,0,0,1-1.524.15,6.9632,6.9632,0,0,1-3.4038-.8213,5.6142,5.6142,0,0,1-2.1626-2.0742,5.7422,5.7422,0,0,1-.7236-2.9961,5.4251,5.4251,0,0,1,.9092-3.0723,6.2327,6.2327,0,0,1,2.5693-2.1035,8.8857,8.8857,0,0,1,3.9141-.7695c.1709.0019.47.0166.8984.0459s.7324.0556.9155.081.9092.18,2.1783.4619l.0039-.44a2.135,2.135,0,0,0-.3374-1.1231,2.2758,2.2758,0,0,0-1.2759-.8916,6.9033,6.9033,0,0,0-2.1787-.332A7.8322,7.8322,0,0,0,162.51,477.1a2.7531,2.7531,0,0,1-1.6978-2.8047,3.3456,3.3456,0,0,1,2.0625-2.8594,11.1118,11.1118,0,0,1,5.4946-1.1035,10.8764,10.8764,0,0,1,4.6866.9248,6.1871,6.1871,0,0,1,2.7807,2.667A9.54,9.54,0,0,1,176.7651,478.5555Zm-11.3076,4.8808a1.5954,1.5954,0,0,0,.7027,1.3643,2.9592,2.9592,0,0,0,1.7744.5293,3.347,3.347,0,0,0,1.3408-.2988,2.6733,2.6733,0,0,0,1.2026-1.0518,2.9348,2.9348,0,0,0,.4917-1.5908l.003-.33a6.1243,6.1243,0,0,0-2.7452-.5762,3.542,3.542,0,0,0-1.9487.4952A1.6394,1.6394,0,0,0,165.4575,483.4363Z" transform="translate(-43.1006 -6.5247)"/><path class="cls-1" d="M186.564,474.1736a7.1635,7.1635,0,0,1,2.1548-2.8779,4.02,4.02,0,0,1,2.2431-.6758,4.0631,4.0631,0,0,1,1.8306.4209,2.3447,2.3447,0,0,1,1.1264,1.1475,3.6361,3.6361,0,0,1,.3155,1.5068,5.7777,5.7777,0,0,1-1.06,3.5117,7.1877,7.1877,0,0,0-2.7827-.5761q-3.7406-.0353-3.793,5.5019l-.0385,4.0713a4.6083,4.6083,0,0,1-.7046,2.7442,2.8053,2.8053,0,0,1-2.4112.8945l-.1831-.002a3.1628,3.1628,0,0,1-2.4507-.7558,4.0232,4.0232,0,0,1-.6-2.5733l.1182-12.4707a3.8852,3.8852,0,0,1,.7212-2.5615,3.0193,3.0193,0,0,1,2.3921-.7842,3.0675,3.0675,0,0,1,2.394.8672A3.8316,3.8316,0,0,1,186.564,474.1736Z" transform="translate(-43.1006 -6.5247)"/><path class="cls-1" d="M201.45,467.0867l.4023.0039q2.9708.0294,2.9419,3.0362l-.0166,1.7978,2.3106.0225a3.2308,3.2308,0,0,1,2.2685.7363,2.4533,2.4533,0,0,1,.7515,1.8955,2.32,2.32,0,0,1-.8262,2.0469,4.836,4.836,0,0,1-2.6455.5254l-1.9082-.0186-.0473,4.9873a2.9156,2.9156,0,0,0,.5678,2.1153,2.3819,2.3819,0,0,0,1.7173.5849,8.1435,8.1435,0,0,0,.9937-.1191,4.5957,4.5957,0,0,0,1.3969-.4453,4.2983,4.2983,0,0,1,.6353,2.61,2.9722,2.9722,0,0,1-.5093,1.5908,3.5238,3.5238,0,0,1-1.8833,1.2657,9.344,9.344,0,0,1-3.1782.4648,5.9054,5.9054,0,0,1-4.4937-1.7471,7.2,7.2,0,0,1-1.5669-5.1328l.0591-6.2343-.9531-.0088a2.5662,2.5662,0,0,1-1.3-.3614,1.9548,1.9548,0,0,1-.8516-.9795,3.3435,3.3435,0,0,1-.2446-1.2871q.0249-2.603,2.7012-2.5781l.6972.0069.0132-1.4307a3.9923,3.9923,0,0,1,.7036-2.5059A2.7012,2.7012,0,0,1,201.45,467.0867Z" transform="translate(-43.1006 -6.5247)"/><path class="cls-1" d="M214.1782,470.9861l1.21.0118a2.6041,2.6041,0,0,1,2.8408,2.081l.105.4414q.071.2578,1.0049,4.3379t1.8237,6.876a105.8055,105.8055,0,0,0,3.0811-11.5986q.4233-2.0508,2.8808-2.0264l1.1738.0107a3.68,3.68,0,0,1,1.8843.458,1.4349,1.4349,0,0,1,.7393,1.3282,3.1081,3.1081,0,0,1-.1538.7685,4.4625,4.4625,0,0,0-.1519.586,112.0635,112.0635,0,0,1-7.1611,20.289,6.8055,6.8055,0,0,1-1.6187,2.3877,2.6086,2.6086,0,0,1-1.6748.626l-1.6875-.0166a2.4557,2.4557,0,0,1-1.6816-.5654,1.8587,1.8587,0,0,1-.6089-1.4727,3.7694,3.7694,0,0,1,.3423-1.3,21.9836,21.9836,0,0,1,1.2314-2.3721q.8951-1.5527,1.0821-1.9521h-.0362a4.9213,4.9213,0,0,1-2.7973-2.7422,41.4889,41.4889,0,0,1-1.7955-4.0879,76.9006,76.9006,0,0,1-2.5517-9.4512,4.0007,4.0007,0,0,1-.1392-.8808,1.4262,1.4262,0,0,1,.7647-1.3321A3.83,3.83,0,0,1,214.1782,470.9861Z" transform="translate(-43.1006 -6.5247)"/><path class="cls-1" d="M236.22,471.1951l.22.002a3.4969,3.4969,0,0,1,2.2134.6445,1.8971,1.8971,0,0,1,.7739,1.5479l-.0053.55a4.6485,4.6485,0,0,1,1.2793-1.5469,5.4073,5.4073,0,0,1,1.8984-1.0088,6.4761,6.4761,0,0,1,1.874-.2939,7.2825,7.2825,0,0,1,4.2613,1.2324,7.3713,7.3713,0,0,1,2.5551,3.3437,13.9791,13.9791,0,0,1,.83,5.3272,13.2377,13.2377,0,0,1-.9472,5.1992,7.2441,7.2441,0,0,1-2.6543,3.2217,7.4814,7.4814,0,0,1-4.2662,1.1142,7.001,7.001,0,0,1-2.8911-.67,5.02,5.02,0,0,1-2.0752-1.5781l-.06,6.3457a3.0752,3.0752,0,0,1-.7364,2.2676,3.321,3.321,0,0,1-2.3725.6738l-.1465-.001a3.2161,3.2161,0,0,1-2.3408-.7558,3.0444,3.0444,0,0,1-.7124-2.2442l.1938-20.5029a2.9515,2.9515,0,0,1,.7359-2.2119A3.3763,3.3763,0,0,1,236.22,471.1951Zm3.2051,10.0078a9.74,9.74,0,0,0,.1987,2.33,1.8023,1.8023,0,0,0,.9229,1.2373,3.7916,3.7916,0,0,0,1.7387.3838,3.0932,3.0932,0,0,0,1.729-.4609,2.9735,2.9735,0,0,0,1.1314-1.3838,6.3205,6.3205,0,0,0,.4087-2.4151,7.4811,7.4811,0,0,0-.2915-2.2226,2.69,2.69,0,0,0-1.085-1.5322,3.1344,3.1344,0,0,0-1.7373-.53,2.3746,2.3746,0,0,0-1.75.6992,3.6867,3.6867,0,0,0-.9888,1.8057A9.2451,9.2451,0,0,0,239.4253,481.2029Z" transform="translate(-43.1006 -6.5247)"/><path class="cls-1" d="M261.0918,474.8787a7.1639,7.1639,0,0,1,2.1533-2.8779,4.12,4.12,0,0,1,4.0752-.2549,2.3413,2.3413,0,0,1,1.126,1.1475,3.6373,3.6373,0,0,1,.3154,1.5068,5.7719,5.7719,0,0,1-1.0605,3.5117,7.1789,7.1789,0,0,0-2.7813-.5761q-3.7412-.0353-3.7929,5.5019l-.0381,4.0713a4.6075,4.6075,0,0,1-.7051,2.7441,2.8062,2.8062,0,0,1-2.4111.8946l-.1836-.002a3.1653,3.1653,0,0,1-2.4512-.7558,4.0232,4.0232,0,0,1-.5986-2.5733l.1181-12.4707a3.88,3.88,0,0,1,.7217-2.5615,3.0207,3.0207,0,0,1,2.3916-.7842,3.0641,3.0641,0,0,1,2.3936.8672A3.8307,3.8307,0,0,1,261.0918,474.8787Z" transform="translate(-43.1006 -6.5247)"/><path class="cls-1" d="M289.2373,481.3436a11.8253,11.8253,0,0,1-.6025,3.6074,8.1092,8.1092,0,0,1-1.8828,3.1182,9.4343,9.4343,0,0,1-3.1563,2.1337,10.03,10.03,0,0,1-4.06.7686,10.7765,10.7765,0,0,1-3.4238-.6006,9.4142,9.4142,0,0,1-3.1016-1.79,8.4784,8.4784,0,0,1-2.2265-3.1026,10.4526,10.4526,0,0,1-.8028-4.3164,12.0084,12.0084,0,0,1,.6026-3.626,8.3987,8.3987,0,0,1,1.8828-3.1738,9.5774,9.5774,0,0,1,3.1758-2.207,9.7881,9.7881,0,0,1,4.0791-.8057,9.7067,9.7067,0,0,1,7.1592,3.1494,8.4049,8.4049,0,0,1,1.8222,3.209A11.9789,11.9789,0,0,1,289.2373,481.3436Zm-12.9453-.2325a4.9169,4.9169,0,0,0,.8848,3.254,3.1885,3.1885,0,0,0,4.7871.0449,4.99,4.99,0,0,0,.93-3.2364,4.8559,4.8559,0,0,0-.8868-3.2177,3.1681,3.1681,0,0,0-4.7685-.045A4.8579,4.8579,0,0,0,276.292,481.1111Z" transform="translate(-43.1006 -6.5247)"/><path class="cls-1" d="M294.6084,471.7469l.2939.0029a3.4786,3.4786,0,0,1,1.5743.3643,2.2027,2.2027,0,0,1,1.0332,1.2568,6.4142,6.4142,0,0,1,.3271,2.2949l-.0576,6.0157a5.6318,5.6318,0,0,0,.5605,2.7929,1.9644,1.9644,0,0,0,1.8243,1.043,2.136,2.136,0,0,0,2.122-1.3359,9.61,9.61,0,0,0,.6407-3.8086l.0449-4.6582a5.24,5.24,0,0,1,.6875-2.8916,2.7383,2.7383,0,0,1,2.4658-.9668l.1465.0009a3.0748,3.0748,0,0,1,2.4512.794,4.2769,4.2769,0,0,1,.5976,2.6465l-.1162,12.2861a4.2516,4.2516,0,0,1-.667,2.6719,3.1337,3.1337,0,0,1-2.4824.747,3.3884,3.3884,0,0,1-2.5049-.7753,3.4593,3.4593,0,0,1-.6924-2.4463l.0039-.4034a5.4147,5.4147,0,0,1-2.0986,2.6768,6.7176,6.7176,0,0,1-3.9893,1.0439,5.3,5.3,0,0,1-2.0869-.4414,4.9514,4.9514,0,0,1-1.748-1.3007,5.8691,5.8691,0,0,1-1.1709-2.2676,10.9967,10.9967,0,0,1-.3916-3.1944l.083-8.7656a3.952,3.952,0,0,1,.7207-2.5976A3.0719,3.0719,0,0,1,294.6084,471.7469Z" transform="translate(-43.1006 -6.5247)"/><path class="cls-1" d="M327.9434,464.8l.1474.001a3.2209,3.2209,0,0,1,2.34.7559,2.9916,2.9916,0,0,1,.7129,2.208l-.1954,20.6123a2.8831,2.8831,0,0,1-.7363,2.1943,3.438,3.438,0,0,1-2.3711.6377l-.2207-.002a3.5559,3.5559,0,0,1-2.2305-.6269,1.8589,1.8589,0,0,1-.7568-1.5283l.0068-.6612a5.4263,5.4263,0,0,1-1.2988,1.5655,5.0453,5.0453,0,0,1-1.8808,1.0273,6.6263,6.6263,0,0,1-1.91.294,6.8391,6.8391,0,0,1-6.7617-4.502,13.5936,13.5936,0,0,1-.8477-5.29,17.149,17.149,0,0,1,.419-3.6455,8.7,8.7,0,0,1,1.35-3.1231,6.7365,6.7365,0,0,1,2.4414-2.124,7.5405,7.5405,0,0,1,3.584-.7539,6.6738,6.6738,0,0,1,2.9824.7246,4.8679,4.8679,0,0,1,2.0205,1.706l.0615-6.5654a2.9636,2.9636,0,0,1,.7549-2.2295A3.3846,3.3846,0,0,1,327.9434,464.8Zm-9.4385,16.7852a5.2,5.2,0,0,0,.7588,3.1045,2.83,2.83,0,0,0,3.6806.7138,2.9754,2.9754,0,0,0,1.169-1.4375,6.0356,6.0356,0,0,0,.4814-2.4336l.0059-.5869a5.55,5.55,0,0,0-.2774-1.7636,2.5978,2.5978,0,0,0-1.0136-1.3848,2.8287,2.8287,0,0,0-1.6094-.5108,3.6919,3.6919,0,0,0-1.36.28,2.6244,2.6244,0,0,0-1.2763,1.2539A5.8586,5.8586,0,0,0,318.5049,481.5848Z" transform="translate(-43.1006 -6.5247)"/><path class="cls-1" d="M341.5156,488.0369a3.5193,3.5193,0,0,1-.625,2.0664,2.9607,2.9607,0,0,1-1.46,1.1416,4.71,4.71,0,0,1-1.543.2784,3.6923,3.6923,0,0,1-1.9385-.5489,3.0168,3.0168,0,0,1-1.2344-1.3691,3.8125,3.8125,0,0,1,.0313-3.2647,3.003,3.003,0,0,1,1.26-1.3447,3.9127,3.9127,0,0,1,4.5068.4453A3.3238,3.3238,0,0,1,341.5156,488.0369Z" transform="translate(-43.1006 -6.5247)"/><path class="cls-1" d="M360.917,476.63a2.4634,2.4634,0,0,1-.9541,1.9531,3.5975,3.5975,0,0,1-2.41.7666,3.313,3.313,0,0,0-1.2177-1.0937,4.05,4.05,0,0,0-1.9219-.44A3.74,3.74,0,0,0,351.56,478.89a4.2981,4.2981,0,0,0-1.0742,3.0713,5.79,5.79,0,0,0,.331,1.9453,3.15,3.15,0,0,0,1.2861,1.6269,3.99,3.99,0,0,0,2.2315.6436,4.3216,4.3216,0,0,0,3.57-1.3594,3.3483,3.3483,0,0,1,2.2119.8643,2.4878,2.4878,0,0,1,.8809,1.916,3.556,3.556,0,0,1-1.9737,3.0078,9.0328,9.0328,0,0,1-4.9257,1.1826,12.0708,12.0708,0,0,1-3.6807-.6035,9.3092,9.3092,0,0,1-3.1924-1.81,8.3957,8.3957,0,0,1-2.2266-3.1211,10.7911,10.7911,0,0,1-.7841-4.3525,11.3691,11.3691,0,0,1,.85-4.4121,8.6655,8.6655,0,0,1,2.23-3.1524,9.1271,9.1271,0,0,1,3.1709-1.8222,11.0969,11.0969,0,0,1,3.6377-.5713,10.1011,10.1011,0,0,1,3.7168.6777,4.9314,4.9314,0,0,1,2.3672,1.7832A3.9716,3.9716,0,0,1,360.917,476.63Z" transform="translate(-43.1006 -6.5247)"/><path class="cls-1" d="M381.9189,482.2205a11.8218,11.8218,0,0,1-.6025,3.6074,8.1072,8.1072,0,0,1-1.8828,3.1182,9.4335,9.4335,0,0,1-3.1563,2.1338,10.0375,10.0375,0,0,1-4.0605.7685,10.7743,10.7743,0,0,1-3.4229-.6005,9.4067,9.4067,0,0,1-3.1015-1.79,8.4782,8.4782,0,0,1-2.2266-3.1025,10.4529,10.4529,0,0,1-.8027-4.3164,11.9712,11.9712,0,0,1,.6025-3.626,8.3979,8.3979,0,0,1,1.8828-3.1738,9.5787,9.5787,0,0,1,3.1758-2.2071,9.7837,9.7837,0,0,1,4.0781-.8056,9.7057,9.7057,0,0,1,7.16,3.1494,8.4044,8.4044,0,0,1,1.8223,3.209A11.9751,11.9751,0,0,1,381.9189,482.2205Zm-12.9453-.2324a4.9171,4.9171,0,0,0,.8848,3.2539,3.1872,3.1872,0,0,0,4.7861.0449,4.9886,4.9886,0,0,0,.93-3.2363,4.8556,4.8556,0,0,0-.8867-3.2178,3.167,3.167,0,0,0-4.7676-.0449A4.858,4.858,0,0,0,368.9736,481.9881Z" transform="translate(-43.1006 -6.5247)"/><path class="cls-1" d="M390.6318,476.2869a6.2413,6.2413,0,0,1,1.376-2.0039,5.7234,5.7234,0,0,1,2.0479-1.3926,5.4537,5.4537,0,0,1,1.9658-.4033q3.7412.0353,4.8789,3.9346a6.9407,6.9407,0,0,1,1.4892-2.2783,4.7224,4.7224,0,0,1,2.0108-1.2471,6.8856,6.8856,0,0,1,2.0019-.3115,6.128,6.128,0,0,1,3.33.9121,5.7577,5.7577,0,0,1,2.1221,2.4961,9.2244,9.2244,0,0,1,.7148,3.95l-.083,8.6924a4.0972,4.0972,0,0,1-.667,2.5976,3.0167,3.0167,0,0,1-2.4091.7471l-.33-.0029a2.8957,2.8957,0,0,1-2.2852-.7735,4.0869,4.0869,0,0,1-.6172-2.6279l.07-7.3721a3.4375,3.4375,0,0,0-.4775-1.9306,1.6987,1.6987,0,0,0-1.5146-.7666,2.1926,2.1926,0,0,0-1.3067.3916,2.31,2.31,0,0,0-.8379,1.3134,8.423,8.423,0,0,0-.2783,2.2344l-.0576,6.124a3.8687,3.8687,0,0,1-.7022,2.5616,3.04,3.04,0,0,1-2.373.748l-.3672-.0039a3.01,3.01,0,0,1-2.34-.7744,4.0036,4.0036,0,0,1-.6358-2.628l.07-7.372a3.0771,3.0771,0,0,0-.5507-1.9678,2.088,2.088,0,0,0-1.7354-.7314,2.1658,2.1658,0,0,0-1.6914.5888,2.7838,2.7838,0,0,0-.6934,1.5352,13.3222,13.3222,0,0,0-.1464,1.8135l-.0538,5.6836a5.7451,5.7451,0,0,1-.3867,2.1982,2.26,2.26,0,0,1-1.0937,1.2178,3.687,3.687,0,0,1-1.6358.334l-.33-.004a2.9284,2.9284,0,0,1-2.377-.7744,4.4585,4.4585,0,0,1-.5615-2.664l.12-12.7637a3.117,3.117,0,0,1,.72-2.2861,3.2386,3.2386,0,0,1,2.3164-.6563,3.5732,3.5732,0,0,1,2.6153.7764A4.2607,4.2607,0,0,1,390.6318,476.2869Z" transform="translate(-43.1006 -6.5247)"/><path class="cls-1" d="M422.7549,488.8055a3.5249,3.5249,0,0,1-.625,2.0674,2.9645,2.9645,0,0,1-1.46,1.1406,4.7385,4.7385,0,0,1-1.5429.2793,3.7023,3.7023,0,0,1-1.9385-.55,3.0171,3.0171,0,0,1-1.2344-1.3692,3.8113,3.8113,0,0,1,.0313-3.2646,3.0028,3.0028,0,0,1,1.26-1.3447,3.917,3.917,0,0,1,4.5069.4453A3.3242,3.3242,0,0,1,422.7549,488.8055Z" transform="translate(-43.1006 -6.5247)"/><path class="cls-1" d="M442.5615,481.0711l-.042,4.4736a7.5254,7.5254,0,0,0,.3955,2.792,2.1244,2.1244,0,0,0,1.07,1.293,3.459,3.459,0,0,1-.6192,1.4434,2.8459,2.8459,0,0,1-1.3486,1.0322,4.596,4.596,0,0,1-1.6905.3144,3.3615,3.3615,0,0,1-3.4218-2.7832l-.0733-.0371a4.0833,4.0833,0,0,1-1.5381,1.7461,5.3057,5.3057,0,0,1-2.0615.8789,9.6932,9.6932,0,0,1-1.5244.15,6.9393,6.9393,0,0,1-3.4033-.8213,5.615,5.615,0,0,1-2.1631-2.0742,5.7452,5.7452,0,0,1-.7246-2.9961,5.43,5.43,0,0,1,.91-3.0723,6.237,6.237,0,0,1,2.5694-2.1035,8.9022,8.9022,0,0,1,3.914-.7695c.1709.002.4707.0176.8975.0459s.7344.0557.917.082.9092.1787,2.1768.461l.0048-.44a2.1461,2.1461,0,0,0-.3378-1.123,2.2782,2.2782,0,0,0-1.2745-.8916,6.9084,6.9084,0,0,0-2.18-.332,7.8363,7.8363,0,0,0-4.708,1.2754,2.7534,2.7534,0,0,1-1.6972-2.8038,3.3479,3.3479,0,0,1,2.0635-2.86,11.1072,11.1072,0,0,1,5.4941-1.1035,10.8685,10.8685,0,0,1,4.6855.9248,6.183,6.183,0,0,1,2.7813,2.667A9.5385,9.5385,0,0,1,442.5615,481.0711Zm-11.3066,4.88a1.5933,1.5933,0,0,0,.7031,1.3642,2.965,2.965,0,0,0,1.7734.53,3.3663,3.3663,0,0,0,1.3418-.2988,2.6757,2.6757,0,0,0,1.2012-1.0527,2.9368,2.9368,0,0,0,.4922-1.5909l.0029-.33a6.1316,6.1316,0,0,0-2.7451-.5762,3.5414,3.5414,0,0,0-1.9482.4951A1.6372,1.6372,0,0,0,431.2549,485.951Z" transform="translate(-43.1006 -6.5247)"/><path class="cls-1" d="M449.1279,473.2088l.294.0029a3.4785,3.4785,0,0,1,1.5742.3643,2.2031,2.2031,0,0,1,1.0332,1.2568,6.412,6.412,0,0,1,.3271,2.2949l-.0576,6.0157a5.63,5.63,0,0,0,.5606,2.7929,1.965,1.965,0,0,0,1.8242,1.044,2.1382,2.1382,0,0,0,2.1221-1.3369,9.61,9.61,0,0,0,.6406-3.8086l.0449-4.6582a5.24,5.24,0,0,1,.6865-2.8916,2.74,2.74,0,0,1,2.4668-.9668l.1465.001a3.0742,3.0742,0,0,1,2.4512.7939,4.2762,4.2762,0,0,1,.5976,2.6465l-.1162,12.2861a4.2509,4.2509,0,0,1-.667,2.6719,3.1337,3.1337,0,0,1-2.4824.7471,3.3911,3.3911,0,0,1-2.5058-.7754,3.459,3.459,0,0,1-.6914-2.4463l.0039-.4033a5.4157,5.4157,0,0,1-2.0987,2.6767,6.718,6.718,0,0,1-3.9892,1.044,5.3033,5.3033,0,0,1-2.0869-.4414,4.94,4.94,0,0,1-1.7481-1.3008,5.8691,5.8691,0,0,1-1.1709-2.2676,11.0033,11.0033,0,0,1-.3916-3.1943l.083-8.7657a3.952,3.952,0,0,1,.7207-2.5976A3.0723,3.0723,0,0,1,449.1279,473.2088Z" transform="translate(-43.1006 -6.5247)"/><path class="cls-2" d="M455.3535,308.2508a8.9369,8.9369,0,0,1-8.9375-8.9375V217.1194c0-106.2661-86.4541-192.72-192.7207-192.72s-192.72,86.4536-192.72,192.72a8.9375,8.9375,0,0,1-17.875,0c0-116.1225,94.4722-210.5947,210.5947-210.5947S464.291,100.9969,464.291,217.1194v82.1939A8.9369,8.9369,0,0,1,455.3535,308.2508Z" transform="translate(-43.1006 -6.5247)"/><path class="cls-3" d="M430.5508,269.0223a8.9369,8.9369,0,0,1-8.9375-8.9375V217.1194c0-92.59-75.3281-167.9169-167.918-167.9169S85.7783,124.53,85.7783,217.1194a8.9375,8.9375,0,0,1-17.875,0c0-102.4462,83.3457-185.7919,185.792-185.7919s185.793,83.3457,185.793,185.7919v42.9654A8.9369,8.9369,0,0,1,430.5508,269.0223Z" transform="translate(-43.1006 -6.5247)"/><path class="cls-4" d="M405.748,299.0984a8.9369,8.9369,0,0,1-8.9375-8.9375V217.1194c0-78.9135-64.2011-143.1142-143.1152-143.1142S110.5811,138.2059,110.5811,217.1194a8.9375,8.9375,0,0,1-17.875,0c0-88.77,72.2192-160.9892,160.9892-160.9892s160.99,72.2192,160.99,160.9892v73.0415A8.9368,8.9368,0,0,1,405.748,299.0984Z" transform="translate(-43.1006 -6.5247)"/><path class="cls-5" d="M356.1426,324.6863a8.9369,8.9369,0,0,1-8.9375-8.9375V217.1194a93.5091,93.5091,0,0,0-187.0181,0,8.9375,8.9375,0,1,1-17.875,0,111.3841,111.3841,0,0,1,222.7681,0v98.6294A8.9369,8.9369,0,0,1,356.1426,324.6863Z" transform="translate(-43.1006 -6.5247)"/><path class="cls-6" d="M331.3389,302.7664a8.9369,8.9369,0,0,1-8.9375-8.9375V217.1194a68.7061,68.7061,0,0,0-137.4121,0,8.9375,8.9375,0,0,1-17.875,0,86.5811,86.5811,0,0,1,173.1621,0v76.7095A8.9369,8.9369,0,0,1,331.3389,302.7664Z" transform="translate(-43.1006 -6.5247)"/><path class="cls-7" d="M380.9443,276.3592a8.9367,8.9367,0,0,1-8.9365-8.9053l-.1777-49.0151a118.3116,118.3116,0,1,0-236.6231-.0322,8.9375,8.9375,0,1,1-17.875,0c0-75.0933,61.0928-136.1861,136.1866-136.1861s136.1865,61.0928,136.1865,136.1861l.1777,48.9829a8.9375,8.9375,0,0,1-8.9053,8.97Z" transform="translate(-43.1006 -6.5247)"/><path class="cls-1" d="M52.2915,239.1512H71.5527q12.8043,0,19.7906,7.1t6.9848,20.0947q0,12.8775-6.9848,19.9746-6.9845,7.1-19.7906,7.0987H62.9805v17.207q0,4.935-2.1167,7.22-2.1181,2.2866-6.8789,2.2862H52.2915q-4.8691,0-6.9316-2.2256-2.064-2.2251-2.064-7.28v-61.728q0-5.0538,2.1167-7.4T52.2915,239.1512Zm10.689,36.94h7.5141a9.0879,9.0879,0,0,0,6.4029-2.2861q2.4851-2.2837,2.4868-6.6172,0-4.45-2.4868-6.6787a9.244,9.244,0,0,0-6.4029-2.2256H62.9805Z" transform="translate(-43.1006 -6.5247)"/><path class="cls-1" d="M153.5708,283.3113V297.992a27.6945,27.6945,0,0,0,1.2173,9.1445q1.215,3.3692,3.1221,4.211a12.1656,12.1656,0,0,1-1.7466,4.7529,8.4731,8.4731,0,0,1-3.8628,3.43,11.9,11.9,0,0,1-4.8682,1.083q-7.6194,0-9.9482-9.0244l-.2115-.12a13.0523,13.0523,0,0,1-4.392,5.7754,14.4289,14.4289,0,0,1-5.9263,2.9482,24.791,24.791,0,0,1-4.3921.541,18.1441,18.1441,0,0,1-9.8423-2.5869,17.311,17.311,0,0,1-6.2969-6.7383,20.8864,20.8864,0,0,1-2.17-9.8066,19.6137,19.6137,0,0,1,2.54-10.1074,18.7661,18.7661,0,0,1,7.3554-6.9786,23.04,23.04,0,0,1,11.271-2.6474q.7391,0,2.5928.12,1.85.1217,2.6455.24.794.1216,6.2974,1.4444v-1.4444a7.7118,7.7118,0,0,0-1.0054-3.67,6.6481,6.6481,0,0,0-3.7041-2.8877,17.76,17.76,0,0,0-6.2974-1.0224q-8.2543,0-13.5464,4.332-4.9753-2.4067-4.9736-9.1455,0-5.6544,5.8735-9.4453t15.8218-3.79q8.2545,0,13.5464,2.8877a19.0286,19.0286,0,0,1,8.0962,8.6631Q153.5689,273.9261,153.5708,283.3113Zm-32.49,16.3653a5.4583,5.4583,0,0,0,2.0639,4.4511,7.8377,7.8377,0,0,0,5.1328,1.6846A8.74,8.74,0,0,0,132.14,304.79a8.1385,8.1385,0,0,0,3.44-3.4893,10.59,10.59,0,0,0,1.376-5.2344v-1.083a15.8782,15.8782,0,0,0-7.9375-1.8047,9.3133,9.3133,0,0,0-5.6089,1.6846A5.5834,5.5834,0,0,0,121.0806,299.6766Z" transform="translate(-43.1006 -6.5247)"/><path class="cls-1" d="M181.7222,268.6317q3.0681-7.2187,6.1382-9.5059a10.6492,10.6492,0,0,1,6.4555-2.2861,10.5257,10.5257,0,0,1,5.2915,1.3242,7.2822,7.2822,0,0,1,3.2808,3.7295,13.3061,13.3061,0,0,1,.9526,4.9336,20.8531,20.8531,0,0,1-2.9634,11.5517,18.5512,18.5512,0,0,0-8.0429-1.8056q-10.7952,0-10.7949,18.17v13.3564q0,6.0176-1.9581,9.0244-1.9592,3.0088-6.9321,3.0079h-.5288q-5.2932,0-7.0908-2.4063-1.801-2.4067-1.7993-8.4228V268.3914q0-5.7759,2.0112-8.4228,2.0091-2.6455,6.8789-2.6475,4.7622,0,6.9316,2.7676Q181.72,262.8588,181.7222,268.6317Z" transform="translate(-43.1006 -6.5247)"/><path class="cls-1" d="M224.4775,244.9271h1.1641q8.5722,0,8.5723,9.8676V260.69h6.6674q4.3381,0,6.5616,2.3467a8.64,8.64,0,0,1,2.2226,6.1963q0,4.9352-2.3286,6.7383-2.3291,1.8047-7.62,1.8047h-5.5034v16.3652q0,5.0538,1.6933,6.919a6.3742,6.3742,0,0,0,4.9741,1.8642,20.4992,20.4992,0,0,0,2.8575-.4209A12.0906,12.0906,0,0,0,247.76,301q1.905,2.8872,1.9052,8.543a10.7219,10.7219,0,0,1-1.4287,5.2344q-1.4289,2.5883-5.3974,4.2109a24.0247,24.0247,0,0,1-9.1543,1.625q-8.3621,0-13.0176-5.5957-4.6582-5.5943-4.6563-16.7852v-20.456h-2.7519a6.7182,6.7182,0,0,1-3.7569-1.1426,6.2242,6.2242,0,0,1-2.4868-3.1885,12.2585,12.2585,0,0,1-.7412-4.2119q0-8.5414,7.7261-8.543h2.0107v-4.6923q0-5.4163,1.9576-8.2432T224.4775,244.9271Z" transform="translate(-43.1006 -6.5247)"/><path class="cls-1" d="M261.3066,257.3211h3.4922q6.7705,0,8.2549,6.7383l.3174,1.4443q.2109.8423,3.0156,14.1983t5.45,22.5009a386.6157,386.6157,0,0,0,8.5723-38.1435q1.1631-6.7368,8.2549-6.7383h3.3867a9.634,9.634,0,0,1,5.45,1.4443,4.8576,4.8576,0,0,1,2.17,4.3311,11.5278,11.5278,0,0,1-.4238,2.5273,16.1285,16.1285,0,0,0-.4229,1.9248A402.6078,402.6078,0,0,1,288.7158,334.33q-2.329,5.7759-4.6035,7.8818a7.0267,7.0267,0,0,1-4.8154,2.1055H274.43a6.2079,6.2079,0,0,1-6.668-6.6182,13.8137,13.8137,0,0,1,.9531-4.2714,76.1849,76.1849,0,0,1,3.4922-7.8213q2.54-5.1153,3.0684-6.4375H275.17q-4.6581-1.443-8.1484-8.9043-2.329-4.9321-5.292-13.3555-2.9634-8.4215-7.62-30.9248a14.7833,14.7833,0,0,1-.4229-2.8877,4.8271,4.8271,0,0,1,2.169-4.3916A9.9645,9.9645,0,0,1,261.3066,257.3211Z" transform="translate(-43.1006 -6.5247)"/><path class="cls-1" d="M57.5835,329.1922H87.5029q19.889,0,30.7412,11.2783,10.85,11.2807,10.85,31.9229,0,20.4565-10.85,31.7314-10.8494,11.2808-30.7412,11.2774H74.187v27.3349q0,7.8414-3.2876,11.47-3.2907,3.6329-10.6855,3.6319h-2.63q-7.563,0-10.7676-3.5361T43.61,442.7371V344.6756q0-8.0287,3.2875-11.7559T57.5835,329.1922ZM74.187,387.8768H85.8589a13.9369,13.9369,0,0,0,9.9458-3.6319q3.8606-3.63,3.8633-10.5136,0-7.0693-3.8633-10.6094a14.1651,14.1651,0,0,0-9.9458-3.5361H74.187Z" transform="translate(-43.1006 -6.5247)"/><path class="cls-1" d="M164.7651,376.0252q4.7667-11.47,9.5352-15.1016a16.3107,16.3107,0,0,1,10.0278-3.6318,16.07,16.07,0,0,1,8.2193,2.1025,11.5012,11.5012,0,0,1,5.0962,5.9258,21.552,21.552,0,0,1,1.4794,7.8379q0,11.0874-4.6025,18.3506a28.2955,28.2955,0,0,0-12.4941-2.8672q-16.768,0-16.7681,28.8643v21.2177q0,9.5611-3.041,14.336-3.044,4.7813-10.7676,4.7793h-.8223q-8.2221,0-11.0141-3.8233-2.7972-3.8217-2.7945-13.3808V375.6424q0-9.1743,3.1231-13.3809,3.1215-4.2011,10.6855-4.205,7.3983,0,10.7681,4.3964Q164.7624,366.8533,164.7651,376.0252Z" transform="translate(-43.1006 -6.5247)"/><path class="cls-1" d="M286.58,408.33a70.7375,70.7375,0,0,1-2.5489,18.8291,44.07,44.07,0,0,1-8.3017,16.3428A42.85,42.85,0,0,1,261.6748,454.78a39.61,39.61,0,0,1-18.166,4.2051,42.2519,42.2519,0,0,1-15.3706-2.9629,40.9963,40.9963,0,0,1-13.9732-9.1748,44.3721,44.3721,0,0,1-10.11-16.0567,62.29,62.29,0,0,1-3.7808-22.4609,71.7326,71.7326,0,0,1,2.5479-18.9238,45.8367,45.8367,0,0,1,8.3017-16.6309,43.7209,43.7209,0,0,1,14.1377-11.66,38.7108,38.7108,0,0,1,18.2476-4.3965,38.2331,38.2331,0,0,1,18.166,4.3965,44.0408,44.0408,0,0,1,14.0547,11.66,45.9047,45.9047,0,0,1,8.3017,16.6309A71.8125,71.8125,0,0,1,286.58,408.33Zm-58.0308-.5732q0,11.2807,4.11,16.9169a13.0219,13.0219,0,0,0,21.4531,0q4.0269-5.6367,4.0273-16.9169,0-11.0846-4.1093-16.7266a12.9441,12.9441,0,0,0-21.3711,0Q228.5482,396.6712,228.5493,407.7567Z" transform="translate(-43.1006 -6.5247)"/><path class="cls-1" d="M305.6465,358.0565h1.3154a13.8109,13.8109,0,0,1,7.0684,1.8164q3.1215,1.8178,4.6855,6.499a38.4635,38.4635,0,0,1,1.5615,11.9473v31.3486q0,9.1758,2.6309,14.5283,2.6265,5.3526,8.2188,5.3516,6.74,0,9.4531-7.0723,2.7129-7.0693,2.7119-19.88V378.3192q0-9.9375,2.959-15.1016,2.96-5.1606,11.0146-5.1611h.6573q8.2191,0,11.0146,4.0146,2.7935,4.0137,2.7949,13.7627V439.87q0,9.942-2.8769,13.9541-2.8785,4.0152-11.0967,4.0147-8.0567,0-11.2608-3.919-3.205-3.9155-3.206-12.7109v-2.1035a28.104,28.104,0,0,1-9.2881,14.05q-6.8232,5.6411-17.8359,5.64a20.8737,20.8737,0,0,1-9.37-2.1982,22.6612,22.6612,0,0,1-7.8917-6.69,32.577,32.577,0,0,1-5.3427-11.7559,66.2314,66.2314,0,0,1-1.8906-16.6309V375.8338q0-9.3633,3.124-13.5723Q297.9171,358.06,305.6465,358.0565Z" transform="translate(-43.1006 -6.5247)"/><path class="cls-1" d="M450.1445,320.2078h.6573q7.2318,0,10.5214,3.8233,3.2857,3.8261,3.2881,11.47V442.9285q0,8.0289-3.206,11.47t-10.6035,3.44h-.9864q-6.5771,0-10.0273-3.1543a10.2864,10.2864,0,0,1-3.4522-7.9326v-3.44a28.0029,28.0029,0,0,1-5.7539,8.22,22.078,22.078,0,0,1-8.3838,5.4472,25.8679,25.8679,0,0,1-8.5488,1.625q-11.3437,0-18.9053-6.0215t-11.59-17.1084q-4.03-11.0829-4.0273-27.5253a103.658,103.658,0,0,1,1.7265-19.0205,49.5887,49.5887,0,0,1,5.918-16.3438,32.1718,32.1718,0,0,1,10.85-11.1816,29.93,29.93,0,0,1,16.0283-4.11,26.5353,26.5353,0,0,1,13.3975,3.6318,22.9927,22.9927,0,0,1,9.124,8.793V335.5008q0-8.0288,3.2881-11.6611Q442.7461,320.2112,450.1445,320.2078Zm-41.5908,87.9307q0,10.516,3.5342,16.1523a11.54,11.54,0,0,0,10.4385,5.64,10.899,10.899,0,0,0,6.083-2.1026q3.12-2.1019,5.1777-7.5507a35.9472,35.9472,0,0,0,2.0557-12.712v-3.0585a33.1836,33.1836,0,0,0-1.3155-9.1749,13.5669,13.5669,0,0,0-4.6035-7.1689,11.4554,11.4554,0,0,0-7.2324-2.58,14.545,14.545,0,0,0-6.083,1.5293q-3.29,1.5323-5.6719,6.5947Q408.5518,398.7738,408.5537,408.1385Z" transform="translate(-43.1006 -6.5247)"/></svg>